:SAMPLES-PER-SECOND 30
:FULLY-SPECIFIED
:DEGREES
710
root  -47.8009 38.537 -0.286598 36.4101 -82.0403 -46.1716
RightUpLeg  -12.4958 -9.6518 6.04956
RightLeg  24.259 -0.520667 -0.0142532
RightFoot  -1.96884 0.371304 -4.68546
RightToes  2.96859e-009 0 -3.6325e-017
Spine  3.22549 -3.80009 13.0561
Spine1  14.4051 -2.57178 0.175628
HEad  -7.45655 -1.92026 -1.90206
LeftShoulder1  -0.127691 3.86218 -29.487
LeftArm  -9.49665 2.61295 -36.8431
LeftForeArm  55.7406 -78.6741 -78.3382
LeftHand  -0.0108204 4.89966 -3.59248
RightShoulder  -0.364658 -4.67613 24.1062
RightArm  -17.1855 -17.6663 36.1014
RightForeArm  111.473 69.8468 145.896
RightHand  -0.0494335 -3.88503 -2.32096
LeftUpLeg  -2.69251 -0.300852 7.27466
LeftLeg  62.6629 -2.79452 -5.28492
LeftFoot  4.15371 0.960138 -7.20049
LeftToes  3.24686e-010 -7.02549e-012 1.39809e-011
711
root  -48.7307 38.7678 -0.349332 30.4908 -82.4819 -40.4804
RightUpLeg  -10.3993 -9.71034 5.03045
RightLeg  24.028 -0.65681 0.0356344
RightFoot  -3.34954 0.308628 -4.73858
RightToes  2.96859e-009 0 -3.6325e-017
Spine  3.63069 -3.44169 12.4151
Spine1  14.2666 -2.0773 -0.00189914
HEad  -7.43115 -2.47241 -1.53945
LeftShoulder1  -0.1247 3.85169 -29.5667
LeftArm  -8.64756 0.194682 -37.1126
LeftForeArm  46.4032 -78.1368 -69.3787
LeftHand  -0.0142892 4.79536 -2.87019
RightShoulder  -0.337143 -4.59384 23.8677
RightArm  -17.4133 -15.914 36.2393
RightForeArm  109.153 71.0292 143.33
RightHand  -0.0499239 -3.6993 -2.19735
LeftUpLeg  -6.91922 -0.510259 6.58642
LeftLeg  65.0696 -1.90408 -3.8442
LeftFoot  2.66853 0.671772 -5.60909
LeftToes  3.24686e-010 -7.02549e-012 1.39809e-011
712
root  -49.6616 39.0424 -0.406055 25.5863 -83.9228 -35.9418
RightUpLeg  -7.82162 -8.9585 3.63573
RightLeg  23.1015 -0.39166 0.335774
RightFoot  -4.38151 0.265641 -4.84919
RightToes  2.96859e-009 0 -3.6325e-017
Spine  4.0968 -2.7104 11.7551
Spine1  14.1413 -1.03545 -0.710138
HEad  -7.08093 -2.93708 -1.5925
LeftShoulder1  0.05304 3.35305 -28.8697
LeftArm  -8.27062 -1.79831 -37.9695
LeftForeArm  37.1653 -77.2252 -60.0604
LeftHand  -0.0130966 4.66613 -2.74225
RightShoulder  -0.316041 -4.5384 23.4453
RightArm  -17.4157 -13.7168 36.8231
RightForeArm  104.638 72.5089 139.277
RightHand  -0.0526134 -4.0251 -2.85942
LeftUpLeg  -9.7468 -0.00982417 5.3269
LeftLeg  63.6796 -1.57551 -2.85306
LeftFoot  1.53805 0.45938 -4.12884
LeftToes  3.24686e-010 -7.02549e-012 1.39809e-011
713
root  -50.5948 39.3325 -0.466936 21.3399 -84.9042 -32.2342
RightUpLeg  -4.65193 -8.80198 2.56775
RightLeg  21.3012 0.0817983 0.839624
RightFoot  -5.06733 0.230012 -4.81279
RightToes  2.96859e-009 0 -3.6325e-017
Spine  4.97515 -2.30491 11.0533
Spine1  13.2847 -0.450264 -1.37425
HEad  -6.36025 -2.87078 -1.77867
LeftShoulder1  0.0915176 3.23874 -28.3706
LeftArm  -8.00904 -3.49223 -38.4923
LeftForeArm  31.456 -76.3542 -53.9851
LeftHand  -0.0100695 4.33264 -2.40026
RightShoulder  -0.289986 -4.45347 23.3769
RightArm  -16.8116 -10.9171 37.0442
RightForeArm  96.8106 74.7444 131.271
RightHand  -0.0625076 -3.022 -2.30139
LeftUpLeg  -11.5344 -0.0432983 4.41622
LeftLeg  59.2396 -1.79819 -2.70934
LeftFoot  -0.305325 0.226318 -2.34398
LeftToes  3.24686e-010 -7.02549e-012 1.39809e-011
714
root  -51.4366 39.5227 -0.49687 17.8702 -85.5695 -28.9408
RightUpLeg  -2.2737 -9.09659 1.65843
RightLeg  19.9711 0.859266 1.47703
RightFoot  -5.86373 0.183531 -4.66337
RightToes  2.96859e-009 0 -3.6325e-017
Spine  5.61248 -2.02398 10.7659
Spine1  12.5897 -0.0374414 -2.04214
HEad  -6.27292 -2.32069 -1.85884
LeftShoulder1  0.153808 3.0513 -27.8389
LeftArm  -7.57265 -5.96017 -39.0174
LeftForeArm  25.4577 -75.1356 -47.7533
LeftHand  -0.0133017 4.56677 -2.4481
RightShoulder  -0.227245 -4.25107 22.9297
RightArm  -16.1871 -7.57243 37.3103
RightForeArm  85.5248 76.6995 120.022
RightHand  -0.0601164 -3.17582 -2.31256
LeftUpLeg  -12.9427 -0.45875 3.6598
LeftLeg  52.275 -2.37089 -2.86778
LeftFoot  -2.06056 0.194236 -2.2472
LeftToes  3.24686e-010 -7.02549e-012 1.39809e-011
715
root  -52.226 39.6715 -0.496873 22.0556 -86.68 -33.0942
RightUpLeg  -0.291259 -8.90119 1.21826
RightLeg  18.5994 1.77075 1.79114
RightFoot  -6.43347 0.162445 -4.79953
RightToes  2.96859e-009 0 -3.6325e-017
Spine  5.81406 -1.44091 10.677
Spine1  12.5185 0.570287 -2.62431
HEad  -6.89649 -2.21204 -1.89216
LeftShoulder1  0.220789 2.84072 -27.1094
LeftArm  -7.0753 -9.35314 -39.7721
LeftForeArm  19.141 -73.3963 -41.1965
LeftHand  -0.0123892 4.43631 -2.24691
RightShoulder  -0.126701 -3.93036 21.679
RightArm  -15.5586 -3.40621 37.88
RightForeArm  66.8159 78.1185 102.255
RightHand  -0.0718639 -3.05418 -2.85794
LeftUpLeg  -13.4011 0.332009 3.22634
LeftLeg  42.7895 -3.28388 -2.79582
LeftFoot  -2.25447 0.201854 -2.37568
LeftToes  3.24686e-010 -7.02549e-012 1.39809e-011
716
root  -53.0322 39.8454 -0.53958 36.5694 -87.6618 -47.1289
RightUpLeg  1.52211 -8.11766 1.53373
RightLeg  16.4472 2.11303 1.68586
RightFoot  -6.53981 0.162061 -4.91041
RightToes  2.96859e-009 0 -3.6325e-017
Spine  5.0016 -0.810791 10.2426
Spine1  12.973 0.971324 -2.90519
HEad  -7.31966 -1.82658 -2.29989
LeftShoulder1  0.316369 2.53454 -26.4724
LeftArm  -6.93786 -12.6906 -40.2035
LeftForeArm  13.7762 -71.6357 -36.4181
LeftHand  -0.0231993 5.03116 -1.72976
RightShoulder  -0.104416 -3.85695 21.118
RightArm  -14.5621 2.12876 37.999
RightForeArm  38.745 77.9707 75.2988
RightHand  -0.0705895 -2.52827 -2.34655
LeftUpLeg  -12.9392 1.96259 3.36239
LeftLeg  30.908 -5.28008 -3.11529
LeftFoot  -1.94912 0.254016 -2.92742
LeftToes  3.24686e-010 -7.02549e-012 1.39809e-011
717
root  -53.7482 39.9238 -0.4562 40.7969 -87.1507 -50.3678
RightUpLeg  2.4396 -7.87915 1.80311
RightLeg  14.9388 1.6171 1.77187
RightFoot  -7.17395 0.115843 -4.51095
RightToes  2.96859e-009 0 -3.6325e-017
Spine  3.71278 -1.0506 10.5101
Spine1  13.2814 0.613825 -3.70791
HEad  -7.55078 -1.3936 -1.83123
LeftShoulder1  0.401469 2.23451 -25.3857
LeftArm  -6.72726 -16.2772 -40.7016
LeftForeArm  8.45058 -69.5225 -32.0788
LeftHand  -0.0353073 5.70106 -1.08448
RightShoulder  -0.00347539 -3.4896 20.4669
RightArm  -13.678 7.98215 38.4665
RightForeArm  13.718 75.1741 51.5788
RightHand  -0.0956307 -1.83345 -2.83429
LeftUpLeg  -12.8805 1.69806 3.11015
LeftLeg  19.4959 -5.44066 -1.83124
LeftFoot  -0.77069 0.476492 -5.11889
LeftToes  3.24686e-010 -7.02549e-012 1.39809e-011
